HIERARCHY
ROOT Hips
{
	OFFSET 0.053599 88.859886 3.107447
	CHANNELS 6 Xposition Yposition Zposition Zrotation Yrotation Xrotation 
	JOINT Spine
	{
		OFFSET -0.000000 8.814246 -2.080107
		CHANNELS 3 Zrotation Yrotation Xrotation
		JOINT Spine1
		{
			OFFSET 0.000000 8.844141 0.000000
			CHANNELS 3 Zrotation Yrotation Xrotation
			JOINT Spine2
			{
				OFFSET -0.000000 11.682268 0.000000
				CHANNELS 3 Zrotation Yrotation Xrotation
				JOINT Spine3
				{
					OFFSET 0.000000 11.746700 0.000000
					CHANNELS 3 Zrotation Yrotation Xrotation
					JOINT Neck
					{
						OFFSET -0.000000 17.658264 -0.000000
						CHANNELS 3 Zrotation Yrotation Xrotation
						JOINT Neck1
						{
							OFFSET -0.000000 5.101515 -0.000000
							CHANNELS 3 Zrotation Yrotation Xrotation
							JOINT Head
							{
								OFFSET 0.000000 5.101515 0.000000
								CHANNELS 3 Zrotation Yrotation Xrotation
								JOINT HeadEnd
								{
									OFFSET 0.000000 11.655085 0.000000
									CHANNELS 3 Zrotation Yrotation Xrotation
									End Site
									{
										OFFSET 0.000000 0.000000 0.000000
									}
								}
							}
						}
					}
					JOINT RightShoulder
					{
						OFFSET -2.625389 11.175210 0.000000
						CHANNELS 3 Zrotation Yrotation Xrotation
						JOINT RightArm
						{
							OFFSET -0.000000 10.434715 -0.000000
							CHANNELS 3 Zrotation Yrotation Xrotation
							JOINT RightForeArm
							{
								OFFSET -0.000000 29.628420 0.000000
								CHANNELS 3 Zrotation Yrotation Xrotation
								JOINT RightHand
								{
									OFFSET -0.000000 22.857611 0.000000
									CHANNELS 3 Zrotation Yrotation Xrotation
									JOINT RightHandThumb1
									{
										OFFSET -2.867323 3.959563 2.944291
										CHANNELS 3 Zrotation Yrotation Xrotation
										JOINT RightHandThumb2
										{
											OFFSET 0.000000 3.350399 0.000000
											CHANNELS 3 Zrotation Yrotation Xrotation
											JOINT RightHandThumb3
											{
												OFFSET 0.000000 3.756509 -0.000000
												CHANNELS 3 Zrotation Yrotation Xrotation
												JOINT RightHandThumb4
												{
													OFFSET 0.000000 3.147345 0.000000
													CHANNELS 3 Zrotation Yrotation Xrotation
													End Site
													{
														OFFSET 0.000000 0.000000 0.000000
													}
												}
											}
										}
									}
									JOINT RightHandIndex1
									{
										OFFSET -0.086752 10.030893 2.345280
										CHANNELS 3 Zrotation Yrotation Xrotation
										JOINT RightHandIndex2
										{
											OFFSET -0.000000 4.061090 0.000000
											CHANNELS 3 Zrotation Yrotation Xrotation
											JOINT RightHandIndex3
											{
												OFFSET -0.000000 3.248873 0.000000
												CHANNELS 3 Zrotation Yrotation Xrotation
												JOINT RightHandIndex4
												{
													OFFSET 0.000000 2.639709 -0.000000
													CHANNELS 3 Zrotation Yrotation Xrotation
													End Site
													{
														OFFSET 0.000000 0.000000 0.000000
													}
												}
											}
										}
									}
									JOINT RightHandMiddle1
									{
										OFFSET 0.104102 9.502952 0.006768
										CHANNELS 3 Zrotation Yrotation Xrotation
										JOINT RightHandMiddle2
										{
											OFFSET 0.000000 4.568727 0.000000
											CHANNELS 3 Zrotation Yrotation Xrotation
											JOINT RightHandMiddle3
											{
												OFFSET 0.000000 3.654981 -0.000000
												CHANNELS 3 Zrotation Yrotation Xrotation
												JOINT RightHandMiddle4
												{
													OFFSET -0.000000 2.741236 -0.000000
													CHANNELS 3 Zrotation Yrotation Xrotation
													End Site
													{
														OFFSET 0.000000 0.000000 0.000000
													}
												}
											}
										}
									}
									JOINT RightHandRing1
									{
										OFFSET 0.086752 8.921708 -2.267442
										CHANNELS 3 Zrotation Yrotation Xrotation
										JOINT RightHandRing2
										{
											OFFSET -0.000000 4.061090 0.000000
											CHANNELS 3 Zrotation Yrotation Xrotation
											JOINT RightHandRing3
											{
												OFFSET 0.000000 3.654981 -0.000000
												CHANNELS 3 Zrotation Yrotation Xrotation
												JOINT RightHandRing4
												{
													OFFSET 0.000000 2.741236 -0.000000
													CHANNELS 3 Zrotation Yrotation Xrotation
													End Site
													{
														OFFSET 0.000000 0.000000 0.000000
													}
												}
											}
										}
									}
									JOINT RightHandPinky1
									{
										OFFSET -0.173504 7.976997 -4.467199
										CHANNELS 3 Zrotation Yrotation Xrotation
										JOINT RightHandPinky2
										{
											OFFSET 0.000000 3.350399 -0.000000
											CHANNELS 3 Zrotation Yrotation Xrotation
											JOINT RightHandPinky3
											{
												OFFSET -0.000000 2.842763 0.000000
												CHANNELS 3 Zrotation Yrotation Xrotation
												JOINT RightHandPinky4
												{
													OFFSET -0.000000 2.639709 0.000000
													CHANNELS 3 Zrotation Yrotation Xrotation
													End Site
													{
														OFFSET 0.000000 0.000000 0.000000
													}
												}
											}
										}
									}
									JOINT RightForeArmEnd
									{
										OFFSET 0.000000 0.000000 0.000000
										CHANNELS 3 Zrotation Yrotation Xrotation
										End Site
										{
											OFFSET 0.000000 0.000000 0.000000
										}
									}
								}
								JOINT RightArmEnd
								{
									OFFSET 0.000000 0.000000 0.000000
									CHANNELS 3 Zrotation Yrotation Xrotation
									End Site
									{
										OFFSET 0.000000 0.000000 0.000000
									}
								}
							}
						}
					}
					JOINT LeftShoulder
					{
						OFFSET 2.625389 11.175210 0.000000
						CHANNELS 3 Zrotation Yrotation Xrotation
						JOINT LeftArm
						{
							OFFSET 0.000000 10.813635 -0.000000
							CHANNELS 3 Zrotation Yrotation Xrotation
							JOINT LeftForeArm
							{
								OFFSET 0.000000 28.724781 0.000000
								CHANNELS 3 Zrotation Yrotation Xrotation
								JOINT LeftHand
								{
									OFFSET 0.644384 25.716167 -0.328871
									CHANNELS 3 Zrotation Yrotation Xrotation
									JOINT LeftHandThumb1
									{
										OFFSET 2.867323 3.959563 2.944291
										CHANNELS 3 Zrotation Yrotation Xrotation
										JOINT LeftHandThumb2
										{
											OFFSET 0.000000 3.350399 0.000000
											CHANNELS 3 Zrotation Yrotation Xrotation
											JOINT LeftHandThumb3
											{
												OFFSET -0.000000 3.756509 0.000000
												CHANNELS 3 Zrotation Yrotation Xrotation
												JOINT LeftHandThumb4
												{
													OFFSET -0.000000 3.100000 0.000000
													CHANNELS 3 Zrotation Yrotation Xrotation
													End Site
													{
														OFFSET 0.000000 0.000000 0.000000
													}
												}
											}
										}
									}
									JOINT LeftHandIndex1
									{
										OFFSET 0.086752 10.030893 2.345280
										CHANNELS 3 Zrotation Yrotation Xrotation
										JOINT LeftHandIndex2
										{
											OFFSET -0.000000 4.061090 -0.000000
											CHANNELS 3 Zrotation Yrotation Xrotation
											JOINT LeftHandIndex3
											{
												OFFSET 0.000000 3.248873 -0.000000
												CHANNELS 3 Zrotation Yrotation Xrotation
												JOINT LeftHandIndex4
												{
													OFFSET 0.000000 2.639709 -0.000000
													CHANNELS 3 Zrotation Yrotation Xrotation
													End Site
													{
														OFFSET 0.000000 0.000000 0.000000
													}
												}
											}
										}
									}
									JOINT LeftHandMiddle1
									{
										OFFSET -0.104102 9.502952 0.006768
										CHANNELS 3 Zrotation Yrotation Xrotation
										JOINT LeftHandMiddle2
										{
											OFFSET -0.000000 4.568727 -0.000000
											CHANNELS 3 Zrotation Yrotation Xrotation
											JOINT LeftHandMiddle3
											{
												OFFSET 0.000000 3.654981 0.000000
												CHANNELS 3 Zrotation Yrotation Xrotation
												JOINT LeftHandMiddle4
												{
													OFFSET 0.000000 2.741236 -0.000000
													CHANNELS 3 Zrotation Yrotation Xrotation
													End Site
													{
														OFFSET 0.000000 0.000000 0.000000
													}
												}
											}
										}
									}
									JOINT LeftHandRing1
									{
										OFFSET -0.086752 8.921708 -2.267442
										CHANNELS 3 Zrotation Yrotation Xrotation
										JOINT LeftHandRing2
										{
											OFFSET 0.000000 4.061090 0.000000
											CHANNELS 3 Zrotation Yrotation Xrotation
											JOINT LeftHandRing3
											{
												OFFSET 0.000000 3.654981 0.000000
												CHANNELS 3 Zrotation Yrotation Xrotation
												JOINT LeftHandRing4
												{
													OFFSET 0.000000 2.741236 0.000000
													CHANNELS 3 Zrotation Yrotation Xrotation
													End Site
													{
														OFFSET 0.000000 0.000000 0.000000
													}
												}
											}
										}
									}
									JOINT LeftHandPinky1
									{
										OFFSET 0.173504 7.976997 -4.467199
										CHANNELS 3 Zrotation Yrotation Xrotation
										JOINT LeftHandPinky2
										{
											OFFSET -0.000000 3.350399 -0.000000
											CHANNELS 3 Zrotation Yrotation Xrotation
											JOINT LeftHandPinky3
											{
												OFFSET 0.000000 2.842763 0.000000
												CHANNELS 3 Zrotation Yrotation Xrotation
												JOINT LeftHandPinky4
												{
													OFFSET -0.000000 2.639709 -0.000000
													CHANNELS 3 Zrotation Yrotation Xrotation
													End Site
													{
														OFFSET 0.000000 0.000000 0.000000
													}
												}
											}
										}
									}
									JOINT LeftForeArmEnd
									{
										OFFSET 0.000000 0.000000 0.000000
										CHANNELS 3 Zrotation Yrotation Xrotation
										End Site
										{
											OFFSET 0.000000 0.000000 0.000000
										}
									}
								}
								JOINT LeftArmEnd
								{
									OFFSET 0.000000 0.000000 0.000000
									CHANNELS 3 Zrotation Yrotation Xrotation
									End Site
									{
										OFFSET 0.000000 0.000000 0.000000
									}
								}
							}
						}
					}
				}
			}
		}
	}
	JOINT RightUpLeg
	{
		OFFSET -11.289943 0.000000 0.000000
		CHANNELS 3 Zrotation Yrotation Xrotation
		JOINT RightLeg
		{
			OFFSET 0.000000 -38.200325 0.000000
			CHANNELS 3 Zrotation Yrotation Xrotation
			JOINT RightFoot
			{
				OFFSET -0.000000 -39.900856 -0.000000
				CHANNELS 3 Zrotation Yrotation Xrotation
				JOINT RightToeBase
				{
					OFFSET 0.000000 0.000000 15.261641
					CHANNELS 3 Zrotation Yrotation Xrotation
					JOINT RightToeBaseEnd
					{
						OFFSET 0.000000 0.000000 7.370709
						CHANNELS 3 Zrotation Yrotation Xrotation
						End Site
						{
							OFFSET 0.000000 0.000000 0.000000
						}
					}
				}
				JOINT RightLegEnd
				{
					OFFSET 0.000000 0.000000 0.000000
					CHANNELS 3 Zrotation Yrotation Xrotation
					End Site
					{
						OFFSET 0.000000 0.000000 0.000000
					}
				}
			}
			JOINT RightUpLegEnd
			{
				OFFSET 0.000000 0.000000 0.000000
				CHANNELS 3 Zrotation Yrotation Xrotation
				End Site
				{
					OFFSET 0.000000 0.000000 0.000000
				}
			}
		}
	}
	JOINT LeftUpLeg
	{
		OFFSET 11.315661 -0.000000 0.000000
		CHANNELS 3 Zrotation Yrotation Xrotation
		JOINT LeftLeg
		{
			OFFSET -0.000000 -38.200325 -0.000000
			CHANNELS 3 Zrotation Yrotation Xrotation
			JOINT LeftFoot
			{
				OFFSET 0.000000 -39.900856 -0.000000
				CHANNELS 3 Zrotation Yrotation Xrotation
				JOINT LeftToeBase
				{
					OFFSET -0.000000 -0.000000 15.261641
					CHANNELS 3 Zrotation Yrotation Xrotation
					JOINT LeftToeBaseEnd
					{
						OFFSET 0.000000 -0.000000 7.539996
						CHANNELS 3 Zrotation Yrotation Xrotation
						End Site
						{
							OFFSET 0.000000 0.000000 0.000000
						}
					}
				}
				JOINT LeftLegEnd
				{
					OFFSET 0.000000 0.000000 0.000000
					CHANNELS 3 Zrotation Yrotation Xrotation
					End Site
					{
						OFFSET 0.000000 0.000000 0.000000
					}
				}
			}
			JOINT LeftUpLegEnd
			{
				OFFSET 0.000000 0.000000 0.000000
				CHANNELS 3 Zrotation Yrotation Xrotation
				End Site
				{
					OFFSET 0.000000 0.000000 0.000000
				}
			}
		}
	}
}
MOTION
Frames: 4
Frame Time: 0.016667
0.778817 88.740372 3.029869 -0.081015 -1.916988 -9.541921 1.031360 0.129186 6.132357 -0.889604 0.314344 2.806926 0.338133 -0.549784 3.542316 -1.644230 0.298337 4.780458 0.379462 0.346266 5.693408 -0.097627 0.223289 -3.051654 -0.082349 -0.676796 -21.383142 0.000000 0.000000 0.000000 90.476257 -0.175453 7.852168 69.454025 -13.043617 -2.513997 -0.833195 18.193048 76.477989 -8.410434 8.159869 3.567768 16.203800 31.369186 65.785828 -4.143609 -5.155951 -9.378674 -3.011701 -3.330410 -6.276533 0.000000 0.000000 0.000000 -16.195601 -6.179855 14.557291 0.841964 0.575578 0.207375 0.413832 0.133073 0.262684 0.000000 0.000000 0.000000 -15.627455 -0.798922 8.291950 -0.427619 0.540077 0.054729 0.343328 0.035551 0.051640 0.000000 0.000000 0.000000 -15.204076 7.093449 0.305694 -0.602295 -1.061641 -0.168984 -0.425766 -0.068597 -0.096849 0.000000 0.000000 0.000000 -16.064714 15.278775 -7.778764 -0.787510 -2.085593 -0.497869 -0.725224 -0.104683 -0.413250 0.000000 0.000000 0.000000 0.000000 0.000000 0.000000 0.000000 0.000000 0.000000 -88.451553 0.376701 2.781834 -72.016373 5.894383 -9.429408 0.243454 -12.746143 86.198715 -3.280885 -13.368582 3.377075 -15.304691 -31.706724 66.750725 3.072682 3.093922 -6.334500 2.118584 2.202121 -4.392380 0.000000 0.000000 0.000000 15.252000 -11.888251 20.691168 -0.650772 0.646714 0.101350 -0.588966 0.173688 -0.032312 0.000000 0.000000 0.000000 15.260877 -6.291965 12.941047 -0.519596 0.564948 -0.007968 -0.878770 0.061251 -0.009049 0.000000 0.000000 0.000000 12.314458 2.217260 3.132178 -1.309998 -1.087790 0.137162 -1.519498 -0.084395 0.098293 0.000000 0.000000 0.000000 6.720964 11.915099 -6.778840 -3.019012 -2.148787 0.757844 -2.566293 -0.070417 0.692983 0.000000 0.000000 0.000000 0.000000 0.000000 0.000000 0.000000 0.000000 0.000000 -0.876818 -8.349653 13.213550 -0.073290 -0.655904 5.548060 -2.550871 -6.856323 17.483088 -0.872778 0.825450 -18.636967 0.000000 0.000000 0.000000 0.000000 0.000000 0.000000 0.000000 0.000000 0.000000 -1.720376 -5.485904 8.952381 0.073284 0.318764 10.741712 3.661831 -0.341654 16.093372 0.269009 -0.423340 -20.810635 0.000000 0.000000 0.000000 0.000000 0.000000 0.000000 0.000000 0.000000 0.000000 
0.785513 88.730858 3.006226 -0.073314 -1.909457 -9.543423 1.036862 0.135763 6.140127 -0.899908 0.325525 2.838467 0.331220 -0.530017 3.500405 -1.663510 0.306893 4.855030 0.444011 0.236005 5.935526 -0.091920 0.134407 -2.934545 -0.058462 -0.695553 -21.435055 0.000000 0.000000 0.000000 90.385284 -0.155977 7.735116 69.607224 -12.375440 -2.629289 -0.858083 18.237106 78.118240 -9.017608 8.131516 3.936819 16.214128 31.363523 65.776337 -4.161278 -5.170598 -9.416791 -3.026734 -3.344513 -6.296601 0.000000 0.000000 0.000000 -16.119635 -6.181725 14.542910 0.810641 0.579171 0.190892 0.372086 0.136989 0.250499 0.000000 0.000000 0.000000 -15.550006 -0.810365 8.236206 -0.456926 0.542337 0.047347 0.317422 0.037131 0.046381 0.000000 0.000000 0.000000 -15.103988 7.076147 0.201838 -0.623398 -1.063395 -0.162366 -0.451527 -0.070021 -0.090703 0.000000 0.000000 0.000000 -15.997828 15.272685 -7.942872 -0.786434 -2.088779 -0.473495 -0.732041 -0.110730 -0.389509 0.000000 0.000000 0.000000 0.000000 0.000000 0.000000 0.000000 0.000000 0.000000 -88.458084 0.388311 2.662398 -71.918678 5.439291 -9.639601 0.286531 -12.643783 88.065422 -2.228012 -12.299728 4.318437 -15.255031 -31.725073 66.809059 3.008567 2.993146 -6.167322 2.068635 2.134485 -4.278427 0.000000 0.000000 0.000000 15.611805 -11.935593 20.994205 -0.641761 0.649127 0.118393 -0.579201 0.176572 -0.016255 0.000000 0.000000 0.000000 15.592476 -6.341999 13.162661 -0.514943 0.566093 -0.001293 -0.888781 0.062471 -0.003804 0.000000 0.000000 0.000000 12.623861 2.169668 3.209777 -1.349752 -1.089039 0.130212 -1.555458 -0.085873 0.093868 0.000000 0.000000 0.000000 6.971625 11.902506 -6.859443 -3.094431 -2.148077 0.743401 -2.633041 -0.072228 0.678628 0.000000 0.000000 0.000000 0.000000 0.000000 0.000000 0.000000 0.000000 0.000000 -0.876882 -8.346086 13.208408 -0.073790 -0.656006 5.562837 -2.592357 -6.877239 17.477444 -0.869386 0.823191 -18.659771 0.000000 0.000000 0.000000 0.000000 0.000000 0.000000 0.000000 0.000000 0.000000 -1.725273 -5.502289 8.940030 0.072886 0.316209 10.787872 3.673079 -0.345781 16.054661 0.258915 -0.419902 -20.812252 0.000000 0.000000 0.000000 0.000000 0.000000 0.000000 0.000000 0.000000 0.000000 
0.792014 88.722893 2.982888 -0.063481 -1.903498 -9.537088 1.046134 0.142514 6.152696 -0.912794 0.336860 2.868839 0.325550 -0.502374 3.459728 -1.684539 0.319334 4.920900 0.504055 0.130414 6.158077 -0.086923 0.044284 -2.825006 -0.033615 -0.711475 -21.478735 0.000000 0.000000 0.000000 90.299728 -0.138840 7.633396 69.728127 -11.755376 -2.735382 -0.883419 18.297647 79.614296 -9.531016 8.185310 4.296474 16.235161 31.352499 65.752693 -4.197794 -5.208195 -9.494163 -3.054884 -3.373402 -6.344777 0.000000 0.000000 0.000000 -15.926597 -6.201879 14.513435 0.765765 0.582567 0.176567 0.317743 0.140872 0.240485 0.000000 0.000000 0.000000 -15.351182 -0.841253 8.176396 -0.499957 0.544431 0.040874 0.278250 0.038623 0.042028 0.000000 0.000000 0.000000 -14.865335 7.035746 0.107745 -0.652216 -1.064808 -0.157034 -0.484239 -0.071300 -0.085478 0.000000 0.000000 0.000000 -15.777864 15.245438 -8.086999 -0.783185 -2.091847 -0.450521 -0.737481 -0.116763 -0.367090 0.000000 0.000000 0.000000 0.000000 0.000000 0.000000 0.000000 0.000000 0.000000 -88.462257 0.397588 2.545646 -71.811836 4.963208 -9.851597 0.322833 -12.562512 89.874954 -1.189064 -11.249420 5.323868 -15.217589 -31.738152 66.852715 2.962769 2.917468 -6.043071 2.032166 2.084290 -4.193758 0.000000 0.000000 0.000000 15.857984 -11.962488 21.260090 -0.628205 0.650725 0.131410 -0.565994 0.178632 -0.003876 0.000000 0.000000 0.000000 15.814653 -6.373384 13.356673 -0.507863 0.566863 0.003580 -0.893854 0.063380 0.000004 0.000000 0.000000 0.000000 12.825168 2.140534 3.274307 -1.391110 -1.089812 0.125736 -1.593226 -0.086913 0.091458 0.000000 0.000000 0.000000 7.126587 11.905521 -6.938632 -3.175694 -2.146656 0.736466 -2.707891 -0.073549 0.671178 0.000000 0.000000 0.000000 0.000000 0.000000 0.000000 0.000000 0.000000 0.000000 -0.877598 -8.338856 13.190882 -0.074122 -0.655662 5.581349 -2.633996 -6.902253 17.481253 -0.865902 0.820168 -18.687626 0.000000 0.000000 0.000000 0.000000 0.000000 0.000000 0.000000 0.000000 0.000000 -1.732807 -5.514095 8.920078 0.072414 0.313754 10.827710 3.688304 -0.351268 16.025488 0.248490 -0.416490 -20.817450 0.000000 0.000000 0.000000 0.000000 0.000000 0.000000 0.000000 0.000000 0.000000 
0.798139 88.716850 2.960599 -0.051175 -1.897386 -9.524384 1.059022 0.149565 6.167993 -0.929099 0.348685 2.899382 0.321526 -0.468617 3.421649 -1.708480 0.335211 4.980120 0.559863 0.028999 6.360671 -0.082285 -0.046345 -2.724326 -0.007337 -0.724380 -21.517378 0.000000 0.000000 0.000000 90.221436 -0.124725 7.544370 69.820633 -11.175005 -2.840161 -0.908650 18.375465 80.971039 -9.956294 8.320415 4.648952 16.265606 31.337111 65.716972 -4.249923 -5.266089 -9.605206 -3.094092 -3.415047 -6.417238 0.000000 0.000000 0.000000 -15.638458 -6.238241 14.484727 0.714316 0.585957 0.164452 0.257623 0.144815 0.232538 0.000000 0.000000 0.000000 -15.051188 -0.888618 8.124718 -0.549439 0.546407 0.035312 0.233365 0.040020 0.038569 0.000000 0.000000 0.000000 -14.510283 6.976759 0.030653 -0.683232 -1.066015 -0.153046 -0.518347 -0.072453 -0.081244 0.000000 0.000000 0.000000 -15.424675 15.201041 -8.206551 -0.774365 -2.095083 -0.429945 -0.737594 -0.122734 -0.346656 0.000000 0.000000 0.000000 0.000000 0.000000 0.000000 0.000000 0.000000 0.000000 -88.466904 0.406762 2.429068 -71.695000 4.465084 -10.060905 0.352964 -12.499540 91.611862 -0.169826 -10.227183 6.381281 -15.190783 -31.746639 66.883484 2.933245 2.863953 -5.956204 2.007574 2.049325 -4.134737 0.000000 0.000000 0.000000 16.005369 -11.972335 21.500057 -0.613514 0.651303 0.139092 -0.553200 0.179633 0.003712 0.000000 0.000000 0.000000 15.940443 -6.388785 13.531081 -0.501649 0.567179 0.006155 -0.897657 0.063897 0.002003 0.000000 0.000000 0.000000 12.931664 2.127861 3.331811 -1.436103 -1.089968 0.124283 -1.634916 -0.087354 0.091464 0.000000 0.000000 0.000000 7.199005 11.922452 -7.013103 -3.262642 -2.144207 0.738488 -2.790590 -0.073898 0.671619 0.000000 0.000000 0.000000 0.000000 0.000000 0.000000 0.000000 0.000000 0.000000 -0.879944 -8.327531 13.162752 -0.074319 -0.654813 5.603245 -2.675067 -6.929966 17.494116 -0.862316 0.816443 -18.719816 0.000000 0.000000 0.000000 0.000000 0.000000 0.000000 0.000000 0.000000 0.000000 -1.743892 -5.522154 8.892475 0.071916 0.311442 10.862609 3.707540 -0.357216 16.005362 0.237907 -0.413147 -20.825163 0.000000 0.000000 0.000000 0.000000 0.000000 0.000000 0.000000 0.000000 0.000000 
